<svg xmlns="http://www.w3.org/2000/svg" viewBox="0 0 87.04 84.81"><defs><style>.cls-1{fill:#25a4a7;}.cls-1,.cls-3{stroke:#25a4a7;}.cls-1,.cls-2,.cls-3{stroke-linecap:round;stroke-linejoin:round;stroke-width:2px;}.cls-2,.cls-3{fill:none;}.cls-2{stroke:#696666;}</style></defs><title>1자산 15</title><g id="레이어_2" data-name="레이어 2"><g id="레이어_2-2" data-name="레이어 2"><path class="cls-1" d="M14.7,64.72c.3,5.12,2.81,20,21.82,19,18-.86,40.34-12.12,49.17-17C59.77,58.41,31.15,61.59,14.7,64.72Z"/><path class="cls-2" d="M1,67.92s45.73-13.92,85-1"/><path class="cls-2" d="M26.79,64a21.51,21.51,0,0,0,7.08,10.17"/><path class="cls-2" d="M45.37,61.73A17.46,17.46,0,0,0,51.13,70"/><polyline class="cls-2" points="57.57 60.28 57.57 7.21 51.76 7.21 51.76 1 35.28 1 35.28 7.21 29.47 7.21 29.47 60.28"/><line class="cls-3" x1="37.88" y1="17.15" x2="49.16" y2="17.15"/><line class="cls-3" x1="37.88" y1="25.77" x2="49.16" y2="25.77"/><line class="cls-3" x1="37.88" y1="34.4" x2="49.16" y2="34.4"/><line class="cls-3" x1="37.88" y1="43.03" x2="49.16" y2="43.03"/><polyline class="cls-2" points="28.63 15.38 14.47 15.38 14.47 62.94"/><polyline class="cls-2" points="59.21 19.32 75.9 14.94 75.9 62.94"/><line class="cls-2" x1="21.99" y1="27.32" x2="28.41" y2="27.32"/><line class="cls-2" x1="21.99" y1="37.06" x2="28.41" y2="37.06"/><line class="cls-2" x1="21.99" y1="46.79" x2="28.41" y2="46.79"/><line class="cls-2" x1="58.71" y1="27.32" x2="65.12" y2="27.32"/><line class="cls-2" x1="58.71" y1="37.06" x2="65.12" y2="37.06"/><line class="cls-2" x1="58.71" y1="46.79" x2="65.12" y2="46.79"/></g></g></svg>