<svg xmlns="http://www.w3.org/2000/svg" viewBox="0 0 87.04 85.25"><defs><style>.cls-1{fill:#25a4a7;stroke:#25a4a7;}.cls-1,.cls-2{stroke-linecap:round;stroke-linejoin:round;stroke-width:2px;}.cls-2{fill:none;stroke:#696666;}</style></defs><title>1자산 17</title><g id="레이어_2" data-name="레이어 2"><g id="레이어_1-2" data-name="레이어 1"><path class="cls-1" d="M37.56,19.48a18.84,18.84,0,0,0,17.91,4.95A18.86,18.86,0,0,0,32.6,1.56,18.85,18.85,0,0,0,37.56,19.48Z"/><path class="cls-1" d="M60.34,6.52a18.82,18.82,0,0,0-5,17.91A18.85,18.85,0,0,0,78.25,1.56,18.82,18.82,0,0,0,60.34,6.52Z"/><polyline class="cls-2" points="39.13 7.92 55.42 24.21 71.71 7.92"/><line class="cls-2" x1="55.42" y1="43.69" x2="55.42" y2="24.15"/><path class="cls-2" d="M39.64,52.58h12A5.29,5.29,0,0,0,57,47.29h0A5.28,5.28,0,0,0,51.66,42h-12a15.21,15.21,0,0,0-18.32,2.45L12,53.78"/><path class="cls-2" d="M57,47.29h8.17l11-11a5.78,5.78,0,0,1,8.18,0h0a5.79,5.79,0,0,1,0,8.17l-11,11a18.4,18.4,0,0,1-9.9,5.14l-26.2,4.53-7.45,7.45"/><rect class="cls-2" x="0.22" y="62.68" width="33.17" height="11.54" transform="translate(53.32 8.16) rotate(45)"/></g></g></svg>