<svg xmlns="http://www.w3.org/2000/svg" viewBox="0 0 75.91 81.88"><defs><style>.cls-1{fill:none;}.cls-1,.cls-2{stroke:#696666;stroke-linecap:round;stroke-linejoin:round;stroke-width:2px;}.cls-2{fill:#25a4a7;}</style></defs><title>1자산 14</title><g id="레이어_2" data-name="레이어 2"><g id="레이어_2-2" data-name="레이어 2"><path class="cls-1" d="M74.91,38A37,37,0,1,0,38,74.91,37,37,0,0,0,74.91,38Z"/><path class="cls-1" d="M38,1.37C25.12,6.91,16,21.2,16,38s9.15,31,22,36.58C50.8,69,60,54.72,60,38S50.8,6.91,38,1.37Z"/><line class="cls-1" x1="37.96" y1="1.37" x2="37.96" y2="74.54"/><line class="cls-1" x1="1.37" y1="37.96" x2="74.54" y2="37.96"/><path class="cls-2" d="M17.66,80.88v-3A12.65,12.65,0,0,1,30.31,65.23H45.6A12.64,12.64,0,0,1,58.25,77.87v3"/><path class="cls-2" d="M48.87,54.69A10.91,10.91,0,1,0,38,65.6,10.92,10.92,0,0,0,48.87,54.69Z"/></g></g></svg>