<svg xmlns="http://www.w3.org/2000/svg" viewBox="0 0 92.58 92.31"><defs><style>.cls-1{fill:#f0f0f0;}.cls-2{fill:#fff;}.cls-3{fill:#6b6766;}.cls-4{fill:#1daeb0;}</style></defs><title>1자산 3</title><g id="레이어_2" data-name="레이어 2"><g id="레이어_1-2" data-name="레이어 1"><path class="cls-1" d="M92.58,47A45.36,45.36,0,1,0,47.22,92.31,45.35,45.35,0,0,0,92.58,47Z"/><line class="cls-2" x1="19.98" y1="78.76" x2="66.82" y2="78.76"/><path class="cls-3" d="M66.82,80.76H20a2,2,0,0,1,0-4H66.82a2,2,0,0,1,0,4Z"/><rect class="cls-2" x="28.93" y="53.5" width="28.95" height="25.26"/><path class="cls-3" d="M57.87,80.76H28.93a2,2,0,0,1-2-2V53.5a2,2,0,0,1,2-2H57.87a2,2,0,0,1,2,2V78.76A2,2,0,0,1,57.87,80.76Zm-26.94-4H55.87V55.5H30.93Z"/><rect class="cls-2" x="2" y="2" width="82.8" height="64.05" rx="6.64" ry="6.64"/><path class="cls-3" d="M78.15,68.05H8.64A8.66,8.66,0,0,1,0,59.41V8.64A8.66,8.66,0,0,1,8.64,0H78.15A8.66,8.66,0,0,1,86.8,8.64V59.41A8.66,8.66,0,0,1,78.15,68.05ZM8.64,4A4.64,4.64,0,0,0,4,8.64V59.41a4.64,4.64,0,0,0,4.64,4.64H78.15a4.65,4.65,0,0,0,4.65-4.64V8.64A4.65,4.65,0,0,0,78.15,4Z"/><polygon class="cls-4" points="21.1 46.82 15.77 41.48 35.99 21.25 46.7 31.96 62.2 16.46 67.54 21.8 46.7 42.64 35.99 31.93 21.1 46.82"/><path class="cls-4" d="M21.1,48.82a2,2,0,0,1-1.41-.59l-5.34-5.34a2,2,0,0,1,0-2.83L34.58,19.84a2,2,0,0,1,2.82,0l9.3,9.3L60.79,15.05a2.06,2.06,0,0,1,2.83,0L69,20.39a2,2,0,0,1,0,2.82L48.12,44.06a2.06,2.06,0,0,1-2.83,0L36,34.76,22.52,48.23A2,2,0,0,1,21.1,48.82Zm-2.51-7.34L21.1,44,34.58,30.52a2,2,0,0,1,2.82,0l9.3,9.29,18-18L62.2,19.29,48.12,33.38a2.06,2.06,0,0,1-2.83,0L36,24.08Z"/><polygon class="cls-4" points="55.1 12.97 71.03 28.9 71.03 12.97 55.1 12.97"/><path class="cls-4" d="M71,30.9a2,2,0,0,1-1.41-.58L53.69,14.39a2,2,0,0,1-.43-2.18A2,2,0,0,1,55.1,11H71a2,2,0,0,1,2,2V28.9a2,2,0,0,1-1.24,1.85A2,2,0,0,1,71,30.9ZM59.93,15l9.1,9.1V15Z"/><line class="cls-2" x1="2.39" y1="55.34" x2="76.33" y2="55.34"/><path class="cls-3" d="M76.33,57.34H2.39a2,2,0,0,1,0-4H76.33a2,2,0,1,1,0,4Z"/></g></g></svg>