<svg xmlns="http://www.w3.org/2000/svg" viewBox="0 0 152.45 152.45"><defs><style>.cls-1{fill:#1eafb1;}.cls-2{fill:#fff;}.cls-3{fill:#f6be4a;}</style></defs><title>1자산 12</title><g id="레이어_2" data-name="레이어 2"><g id="레이어_1-2" data-name="레이어 1"><path class="cls-1" d="M152.45,76.22A76.23,76.23,0,1,1,76.22,0,76.23,76.23,0,0,1,152.45,76.22Z"/><path class="cls-2" d="M118,112.62H36.3a1.53,1.53,0,0,1-1.53-1.53V41.59a1.53,1.53,0,0,1,1.53-1.53H118a1.53,1.53,0,0,1,1.53,1.53v69.5A1.53,1.53,0,0,1,118,112.62Zm-80.2-3.06H116.5V43.12H37.83Z"/><rect class="cls-2" x="36.3" y="41.59" width="81.74" height="10.27"/><path class="cls-2" d="M118,53.39H36.3a1.53,1.53,0,0,1-1.53-1.53V41.59a1.53,1.53,0,0,1,1.53-1.53H118a1.53,1.53,0,0,1,1.53,1.53V51.86A1.53,1.53,0,0,1,118,53.39Zm-80.2-3.06H116.5V43.12H37.83Z"/><path class="cls-3" d="M44.48,46.78a1.92,1.92,0,1,0-1.92,1.93A1.92,1.92,0,0,0,44.48,46.78Z"/><path class="cls-3" d="M51.93,46.78A1.92,1.92,0,1,0,50,48.71,1.92,1.92,0,0,0,51.93,46.78Z"/><polygon class="cls-1" points="95.63 101.65 77.16 112.31 58.7 101.65 58.7 80.33 77.16 69.67 95.63 80.33 95.63 101.65"/><path class="cls-2" d="M77.16,113.84a1.6,1.6,0,0,1-.76-.2L57.93,103a1.52,1.52,0,0,1-.76-1.32V80.33A1.54,1.54,0,0,1,57.93,79L76.4,68.34a1.55,1.55,0,0,1,1.53,0L96.39,79a1.53,1.53,0,0,1,.77,1.33v21.32a1.51,1.51,0,0,1-.77,1.32L77.93,113.64A1.61,1.61,0,0,1,77.16,113.84ZM60.23,100.77l16.93,9.78,16.94-9.78V81.21L77.16,71.43,60.23,81.21Z"/><polygon class="cls-3" points="95.63 81.94 95.63 80.33 77.16 69.67 58.7 80.33 58.7 81.94 77.16 92.61 95.63 81.94"/><path class="cls-2" d="M77.16,113.84a1.6,1.6,0,0,1-.76-.2L57.93,103a1.52,1.52,0,0,1-.76-1.32V80.33A1.54,1.54,0,0,1,57.93,79L76.4,68.34a1.55,1.55,0,0,1,1.53,0L96.39,79a1.53,1.53,0,0,1,.77,1.33v21.32a1.51,1.51,0,0,1-.77,1.32L77.93,113.64A1.61,1.61,0,0,1,77.16,113.84ZM60.23,100.77l16.93,9.78,16.94-9.78V81.21L77.16,71.43,60.23,81.21Z"/><path class="cls-2" d="M77.16,94.14a1.5,1.5,0,0,1-.76-.21L57.93,83.27a1.53,1.53,0,1,1,1.53-2.65l17.7,10.22L94.87,80.62a1.53,1.53,0,0,1,1.52,2.65L77.93,93.93A1.51,1.51,0,0,1,77.16,94.14Z"/><path class="cls-2" d="M77.16,112.23a1.53,1.53,0,0,1-1.52-1.53V92.9a1.53,1.53,0,1,1,3,0v17.8A1.53,1.53,0,0,1,77.16,112.23Z"/><path class="cls-2" d="M82,79.1a1.52,1.52,0,0,1-1.08-.45,1.55,1.55,0,0,1,0-2.17l8.2-8.19a1.53,1.53,0,0,1,1.08-.45h7a1.53,1.53,0,0,1,0,3.06H90.83l-7.74,7.75A1.55,1.55,0,0,1,82,79.1Z"/><path class="cls-2" d="M110,70.9h-7.45a1.53,1.53,0,1,1,0-3.06H110a1.53,1.53,0,0,1,0,3.06Z"/><path class="cls-2" d="M110,76.86H99.59a1.53,1.53,0,0,1,0-3.06H110a1.53,1.53,0,0,1,0,3.06Z"/></g></g></svg>