<svg xmlns="http://www.w3.org/2000/svg" viewBox="0 0 94.71 79.48"><defs><style>.cls-1{fill:#f0f0f0;}.cls-2{fill:#fff;}.cls-3{fill:#6b6766;}.cls-4{fill:#1daeb0;}</style></defs><title>1자산 2</title><g id="레이어_2" data-name="레이어 2"><g id="레이어_1-2" data-name="레이어 1"><circle class="cls-1" cx="47.35" cy="39.74" r="39.74"/><path class="cls-2" d="M47.36,11.9A50.85,50.85,0,0,0,2,39.74a50.86,50.86,0,0,0,90.71,0A50.85,50.85,0,0,0,47.36,11.9Z"/><path class="cls-3" d="M47.36,69.58A52.65,52.65,0,0,1,.22,40.65a2,2,0,0,1,0-1.81,52.85,52.85,0,0,1,94.27,0,2,2,0,0,1,0,1.81A52.65,52.65,0,0,1,47.36,69.58ZM4.26,39.74a48.86,48.86,0,0,0,86.19,0,48.86,48.86,0,0,0-86.19,0Z"/><path class="cls-2" d="M74.62,39.74A27.27,27.27,0,1,0,47.36,67,27.26,27.26,0,0,0,74.62,39.74Z"/><path class="cls-3" d="M47.36,69A29.27,29.27,0,1,1,76.62,39.74,29.3,29.3,0,0,1,47.36,69Zm0-54.54A25.27,25.27,0,1,0,72.62,39.74,25.3,25.3,0,0,0,47.36,14.47Z"/><path class="cls-4" d="M61.2,39.74A13.85,13.85,0,1,0,47.36,53.59,13.85,13.85,0,0,0,61.2,39.74Z"/><path class="cls-4" d="M47.36,55.59A15.85,15.85,0,1,1,63.2,39.74,15.87,15.87,0,0,1,47.36,55.59Zm0-27.7A11.85,11.85,0,1,0,59.2,39.74,11.86,11.86,0,0,0,47.36,27.89Z"/><circle class="cls-2" cx="47.35" cy="31.72" r="4"/><path class="cls-3" d="M47.35,37.72a6,6,0,1,1,6-6A6,6,0,0,1,47.35,37.72Zm0-8a2,2,0,1,0,2,2A2,2,0,0,0,47.35,29.72Z"/><circle class="cls-2" cx="32.35" cy="43.39" r="4"/><path class="cls-3" d="M32.35,49.39a6,6,0,1,1,6-6A6,6,0,0,1,32.35,49.39Zm0-8a2,2,0,1,0,2,2A2,2,0,0,0,32.35,41.39Z"/><circle class="cls-2" cx="62.35" cy="43.39" r="4"/><path class="cls-3" d="M62.35,49.39a6,6,0,1,1,6-6A6,6,0,0,1,62.35,49.39Zm0-8a2,2,0,1,0,2,2A2,2,0,0,0,62.35,41.39Z"/><path class="cls-3" d="M47.35,68.06a2,2,0,0,1-2-2V36.72a2,2,0,0,1,4,0V66.06A2,2,0,0,1,47.35,68.06Z"/><polyline class="cls-2" points="34.52 46.73 39.85 52.06 39.85 65.06"/><path class="cls-3" d="M39.85,67.06a2,2,0,0,1-2-2V52.89l-4.74-4.75a2,2,0,0,1,2.83-2.83l5.33,5.33a2,2,0,0,1,.58,1.42v13A2,2,0,0,1,39.85,67.06Z"/><polyline class="cls-2" points="60.19 46.73 54.85 52.06 54.85 65.06"/><path class="cls-3" d="M54.85,67.06a2,2,0,0,1-2-2v-13a2,2,0,0,1,.59-1.42l5.33-5.33a2,2,0,0,1,2.83,2.83l-4.75,4.75V65.06A2,2,0,0,1,54.85,67.06Z"/></g></g></svg>