<svg xmlns="http://www.w3.org/2000/svg" viewBox="0 0 94.71 85.04"><defs><style>.cls-1{fill:#f0f0f0;}.cls-2{fill:#fff;}.cls-3{fill:#6b6766;}.cls-4{fill:#1daeb0;}</style></defs><title>1자산 9</title><g id="레이어_2" data-name="레이어 2"><g id="레이어_1-2" data-name="레이어 1"><circle class="cls-1" cx="47.35" cy="42.52" r="42.52" transform="translate(-8.37 11.78) rotate(-13.04)"/><rect class="cls-2" x="2" y="4.34" width="41.32" height="76.37" rx="6.84" ry="6.84"/><path class="cls-3" d="M36.48,82.7H8.84A8.84,8.84,0,0,1,0,73.87V11.17A8.84,8.84,0,0,1,8.84,2.34H36.48a8.85,8.85,0,0,1,8.84,8.83v62.7A8.85,8.85,0,0,1,36.48,82.7ZM8.84,6.34A4.84,4.84,0,0,0,4,11.17v62.7A4.84,4.84,0,0,0,8.84,78.7H36.48a4.84,4.84,0,0,0,4.84-4.83V11.17a4.84,4.84,0,0,0-4.84-4.83Z"/><rect class="cls-2" x="7.29" y="14.8" width="30.73" height="55.44"/><path class="cls-3" d="M38,72.24H7.29a2,2,0,0,1-2-2V14.8a2,2,0,0,1,2-2H38a2,2,0,0,1,2,2V70.24A2,2,0,0,1,38,72.24Zm-28.74-4H36V16.8H9.29Z"/><rect class="cls-2" x="51.39" y="4.34" width="41.32" height="76.37" rx="6.84" ry="6.84"/><path class="cls-3" d="M85.87,82.7H58.23a8.84,8.84,0,0,1-8.84-8.83V11.17a8.84,8.84,0,0,1,8.84-8.83H85.87a8.84,8.84,0,0,1,8.84,8.83v62.7A8.84,8.84,0,0,1,85.87,82.7ZM58.23,6.34a4.84,4.84,0,0,0-4.84,4.83v62.7a4.84,4.84,0,0,0,4.84,4.83H85.87a4.84,4.84,0,0,0,4.84-4.83V11.17a4.84,4.84,0,0,0-4.84-4.83Z"/><rect class="cls-2" x="56.68" y="14.8" width="30.73" height="55.44"/><path class="cls-3" d="M87.41,72.24H56.68a2,2,0,0,1-2-2V14.8a2,2,0,0,1,2-2H87.41a2,2,0,0,1,2,2V70.24A2,2,0,0,1,87.41,72.24Zm-28.73-4H85.41V16.8H58.68Z"/><path class="cls-4" d="M21.86,39.55A2,2,0,0,1,20.44,39l-7.78-7.78a2,2,0,0,1,0-2.82l7.78-7.78a2,2,0,0,1,2.83,2.82l-6.36,6.37,6.36,6.36a2,2,0,0,1-1.41,3.42Z"/><path class="cls-4" d="M36.88,31.77H14.08a2,2,0,0,1,0-4h22.8a2,2,0,0,1,0,4Z"/><path class="cls-4" d="M72.85,65.05a2,2,0,0,1-1.41-3.42l6.36-6.36-6.36-6.36a2,2,0,1,1,2.83-2.83L82,53.86a2,2,0,0,1,0,2.82l-7.77,7.78A2,2,0,0,1,72.85,65.05Z"/><path class="cls-4" d="M80.63,57.27H57.83a2,2,0,0,1,0-4h22.8a2,2,0,0,1,0,4Z"/><circle class="cls-4" cx="47.35" cy="42.52" r="20.5"/><path class="cls-2" d="M47.35,32.41a2,2,0,0,1-2-2V28.08a2,2,0,0,1,4,0v2.33A2,2,0,0,1,47.35,32.41Z"/><path class="cls-2" d="M47.35,59a2,2,0,0,1-2-2V54.63a2,2,0,0,1,4,0V57A2,2,0,0,1,47.35,59Z"/><path class="cls-2" d="M47.35,44.54a7.73,7.73,0,1,1,7.73-7.73,2,2,0,0,1-4,0,3.73,3.73,0,1,0-3.73,3.73,2,2,0,0,1,0,4Z"/><path class="cls-2" d="M47.35,56a7.73,7.73,0,0,1-7.72-7.73,2,2,0,0,1,4,0,3.73,3.73,0,1,0,3.72-3.73,2,2,0,1,1,0-4,7.73,7.73,0,0,1,0,15.46Z"/></g></g></svg>