<svg xmlns="http://www.w3.org/2000/svg" viewBox="0 0 94.71 88.29"><defs><style>.cls-1{fill:#f0f0f0;}.cls-2{fill:#fff;}.cls-3{fill:#6b6766;}.cls-4{fill:#1daeb0;}</style></defs><title>1자산 1</title><g id="레이어_2" data-name="레이어 2"><g id="레이어_1-2" data-name="레이어 1"><path class="cls-1" d="M87,46.14A39.69,39.69,0,1,0,47.35,85.83,39.69,39.69,0,0,0,87,46.14Z"/><path class="cls-2" d="M84.17,27.69a22.76,22.76,0,0,0-22.44-19,23.54,23.54,0,0,0-3.17.22,26.13,26.13,0,0,0-43.62,15.6,14.93,14.93,0,0,0,2,29.72h62a13.81,13.81,0,0,0,5.27-26.57Z"/><path class="cls-3" d="M78.9,56.26h-62A16.92,16.92,0,0,1,13.2,22.83a28.12,28.12,0,0,1,46-16,23.9,23.9,0,0,1,2.52-.13A24.69,24.69,0,0,1,86,26.29a15.82,15.82,0,0,1-7,30ZM40.82,4a24.21,24.21,0,0,0-23.9,20.82,2,2,0,0,1-1.71,1.71,12.92,12.92,0,0,0,1.72,25.73h62a11.81,11.81,0,0,0,4.51-22.73A2,2,0,0,1,82.2,28a20.68,20.68,0,0,0-20.47-17.3,22.09,22.09,0,0,0-2.9.2,2,2,0,0,1-1.63-.51A24.08,24.08,0,0,0,40.82,4Z"/><rect class="cls-4" x="28.62" y="37.01" width="37.48" height="38.8"/><rect class="cls-2" x="23.99" y="26.54" width="46.74" height="15.43"/><path class="cls-3" d="M70.72,44H24a2,2,0,0,1-2-2V26.54a2,2,0,0,1,2-2H70.72a2,2,0,0,1,2,2V42A2,2,0,0,1,70.72,44ZM26,40H68.72V28.54H26Z"/><path class="cls-4" d="M64.55,34.26a2.65,2.65,0,1,0-2.64,2.64A2.64,2.64,0,0,0,64.55,34.26Z"/><path class="cls-4" d="M55.73,34.26a2.65,2.65,0,1,0-2.64,2.64A2.64,2.64,0,0,0,55.73,34.26Z"/><rect class="cls-2" x="23.99" y="48.7" width="46.74" height="15.43"/><path class="cls-3" d="M70.72,66.13H24a2,2,0,0,1-2-2V48.7a2,2,0,0,1,2-2H70.72a2,2,0,0,1,2,2V64.13A2,2,0,0,1,70.72,66.13ZM26,62.13H68.72V50.7H26Z"/><path class="cls-4" d="M64.55,56.41a2.65,2.65,0,1,0-2.64,2.65A2.64,2.64,0,0,0,64.55,56.41Z"/><path class="cls-4" d="M55.73,56.41a2.65,2.65,0,1,0-2.64,2.65A2.64,2.64,0,0,0,55.73,56.41Z"/><rect class="cls-2" x="23.99" y="70.85" width="46.74" height="15.43"/><path class="cls-3" d="M70.72,88.29H24a2,2,0,0,1-2-2V70.85a2,2,0,0,1,2-2H70.72a2,2,0,0,1,2,2V86.29A2,2,0,0,1,70.72,88.29ZM26,84.29H68.72V72.85H26Z"/><path class="cls-4" d="M64.55,78.57a2.65,2.65,0,1,0-2.64,2.64A2.65,2.65,0,0,0,64.55,78.57Z"/><path class="cls-4" d="M55.73,78.57a2.65,2.65,0,1,0-2.64,2.64A2.65,2.65,0,0,0,55.73,78.57Z"/></g></g></svg>