<svg xmlns="http://www.w3.org/2000/svg" viewBox="0 0 152.45 152.45"><defs><style>.cls-1{fill:#1eafb1;}.cls-2{fill:#fff;}.cls-3{fill:#f6be4a;}</style></defs><title>1자산 11</title><g id="레이어_2" data-name="레이어 2"><g id="레이어_1-2" data-name="레이어 1"><path class="cls-1" d="M152.45,76.22A76.23,76.23,0,1,1,76.22,0,76.23,76.23,0,0,1,152.45,76.22Z"/><path class="cls-2" d="M100,73.48a19,19,0,1,1-19-19A19,19,0,0,1,100,73.48Z"/><path class="cls-3" d="M114.18,78.31V68.64l-7.79-1.13a25.64,25.64,0,0,0-3.2-7.76l4.7-6.3-6.84-6.84-6.31,4.7A25.71,25.71,0,0,0,87,48.1l-1.14-7.79H81V63.66a9.82,9.82,0,0,1,0,19.63v23.35h4.83L87,98.85a25.69,25.69,0,0,0,7.75-3.2l6.31,4.7,6.84-6.84-4.7-6.31a25.69,25.69,0,0,0,3.2-7.75Z"/><path class="cls-2" d="M67.77,116.23a1.4,1.4,0,0,1-1.4-1.4v-5.42h-.51A19.55,19.55,0,0,1,46.33,89.88V87.23H42.18A1.38,1.38,0,0,1,41,86.56a1.4,1.4,0,0,1-.05-1.36l5.39-10.44V69.63A30.86,30.86,0,0,1,77.15,38.81a1.4,1.4,0,1,1,0,2.79,28.07,28.07,0,0,0-28,28v5.46a1.44,1.44,0,0,1-.15.65l-4.5,8.7h3.26a1.4,1.4,0,0,1,1.39,1.4v4a16.76,16.76,0,0,0,16.74,16.74h1.91A1.39,1.39,0,0,1,69.16,108v6.82A1.39,1.39,0,0,1,67.77,116.23Z"/><path class="cls-2" d="M58.47,76.22a2.8,2.8,0,1,0-2.8,2.8A2.79,2.79,0,0,0,58.47,76.22Z"/></g></g></svg>