<svg xmlns="http://www.w3.org/2000/svg" viewBox="0 0 94.71 86.74"><defs><style>.cls-1{fill:#f0f0f0;}.cls-2{fill:#6b6766;}.cls-3{fill:#fff;}.cls-4{fill:#1daeb0;}</style></defs><title>1자산 7</title><g id="레이어_2" data-name="레이어 2"><g id="레이어_1-2" data-name="레이어 1"><circle class="cls-1" cx="47.35" cy="44.09" r="37.91"/><path class="cls-2" d="M47.35,36.89a2,2,0,0,1-2-2V22a2,2,0,0,1,4,0v12.9A2,2,0,0,1,47.35,36.89Z"/><rect class="cls-3" x="19.02" y="41.09" width="56.68" height="11.13"/><path class="cls-2" d="M75.69,54.22H19a2,2,0,0,1-2-2V41.09a2,2,0,0,1,2-2H75.69a2,2,0,0,1,2,2V52.22A2,2,0,0,1,75.69,54.22ZM21,50.22H73.69V43.09H21Z"/><rect class="cls-3" x="25.73" y="29.32" width="43.25" height="34.68" rx="5.61" ry="5.61"/><path class="cls-2" d="M63.37,66h-32a7.61,7.61,0,0,1-7.61-7.6V34.92a7.61,7.61,0,0,1,7.61-7.6h32A7.61,7.61,0,0,1,71,34.92V58.39A7.61,7.61,0,0,1,63.37,66Zm-32-34.67a3.61,3.61,0,0,0-3.61,3.6V58.39A3.61,3.61,0,0,0,31.34,62h32A3.61,3.61,0,0,0,67,58.39V34.92a3.61,3.61,0,0,0-3.61-3.6Z"/><path class="cls-3" d="M51.53,18.57a4.18,4.18,0,1,0-4.18,4.18A4.17,4.17,0,0,0,51.53,18.57Z"/><path class="cls-2" d="M47.35,24.75a6.18,6.18,0,1,1,6.18-6.18A6.18,6.18,0,0,1,47.35,24.75Zm0-8.35a2.18,2.18,0,1,0,2.18,2.17A2.17,2.17,0,0,0,47.35,16.4Z"/><rect class="cls-4" x="34.07" y="38.31" width="26.57" height="7.59"/><path class="cls-4" d="M60.64,47.9H34.07a2,2,0,0,1-2-2V38.31a2,2,0,0,1,2-2H60.64a2,2,0,0,1,2,2V45.9A2,2,0,0,1,60.64,47.9Zm-24.57-4H58.64V40.31H36.07Z"/><path class="cls-2" d="M47.35,56.61a8.41,8.41,0,0,1-6-2.47,2,2,0,0,1,2.83-2.83,4.44,4.44,0,0,0,6.29,0,2,2,0,0,1,2.83,2.83A8.42,8.42,0,0,1,47.35,56.61Z"/><path class="cls-2" d="M73.19,81.55A2,2,0,0,1,71.78,81a2,2,0,0,1,0-2.83L84.92,65V21.74L71.78,8.6a2,2,0,1,1,2.83-2.83L88.33,19.5a2,2,0,0,1,.59,1.41V65.83a2,2,0,0,1-.59,1.41L74.61,81A2,2,0,0,1,73.19,81.55Z"/><path class="cls-2" d="M21.51,81.55A2,2,0,0,1,20.1,81L6.38,67.24a2,2,0,0,1-.59-1.41V20.91a2,2,0,0,1,.59-1.41L20.1,5.77A2,2,0,1,1,22.93,8.6L9.79,21.74V65L22.93,78.14a2,2,0,0,1-1.42,3.41Z"/><path class="cls-3" d="M13.39,46a5.7,5.7,0,1,0-5.7,5.69A5.7,5.7,0,0,0,13.39,46Z"/><path class="cls-2" d="M7.69,53.72A7.7,7.7,0,1,1,15.39,46,7.7,7.7,0,0,1,7.69,53.72Zm0-11.39a3.7,3.7,0,1,0,3.7,3.7A3.7,3.7,0,0,0,7.69,42.33Z"/><path class="cls-3" d="M92.71,46A5.7,5.7,0,1,0,87,51.72,5.7,5.7,0,0,0,92.71,46Z"/><path class="cls-2" d="M87,53.72A7.7,7.7,0,1,1,94.71,46,7.7,7.7,0,0,1,87,53.72Zm0-11.39A3.7,3.7,0,1,0,90.71,46,3.7,3.7,0,0,0,87,42.33Z"/><path class="cls-3" d="M27.38,7.69a5.69,5.69,0,1,0-5.69,5.7A5.69,5.69,0,0,0,27.38,7.69Z"/><path class="cls-2" d="M21.69,15.39a7.7,7.7,0,1,1,7.69-7.7A7.71,7.71,0,0,1,21.69,15.39ZM21.69,4a3.7,3.7,0,1,0,3.69,3.69A3.7,3.7,0,0,0,21.69,4Z"/><path class="cls-3" d="M78.71,7.69A5.7,5.7,0,1,0,73,13.39,5.69,5.69,0,0,0,78.71,7.69Z"/><path class="cls-2" d="M73,15.39a7.7,7.7,0,1,1,7.69-7.7A7.71,7.71,0,0,1,73,15.39ZM73,4a3.7,3.7,0,1,0,3.69,3.69A3.7,3.7,0,0,0,73,4Z"/><path class="cls-3" d="M27.38,79a5.69,5.69,0,1,0-5.69,5.7A5.69,5.69,0,0,0,27.38,79Z"/><path class="cls-2" d="M21.69,86.74A7.7,7.7,0,1,1,29.38,79,7.7,7.7,0,0,1,21.69,86.74Zm0-11.39A3.7,3.7,0,1,0,25.38,79,3.7,3.7,0,0,0,21.69,75.35Z"/><path class="cls-3" d="M78.71,79A5.7,5.7,0,1,0,73,84.74,5.69,5.69,0,0,0,78.71,79Z"/><path class="cls-2" d="M73,86.74A7.7,7.7,0,1,1,80.71,79,7.7,7.7,0,0,1,73,86.74Zm0-11.39A3.7,3.7,0,1,0,76.71,79,3.7,3.7,0,0,0,73,75.35Z"/></g></g></svg>