<svg xmlns="http://www.w3.org/2000/svg" viewBox="0 0 94.71 94.71"><defs><style>.cls-1{fill:#fff;}.cls-2{fill:#6b6766;}.cls-3{fill:#f0f0f0;}.cls-4{fill:#1daeb0;}</style></defs><title>1자산 4</title><g id="레이어_2" data-name="레이어 2"><g id="레이어_1-2" data-name="레이어 1"><path class="cls-1" d="M2,41.36A39.36,39.36,0,1,1,41.35,80.71,39.36,39.36,0,0,1,2,41.36Z"/><path class="cls-2" d="M41.35,82.71A41.36,41.36,0,1,1,82.71,41.36,41.4,41.4,0,0,1,41.35,82.71ZM41.35,4A37.36,37.36,0,1,0,78.71,41.36,37.4,37.4,0,0,0,41.35,4Z"/><path class="cls-3" d="M8.11,41.36A33.25,33.25,0,1,1,41.35,74.6,33.24,33.24,0,0,1,8.11,41.36Z"/><line class="cls-1" x1="71.56" y1="41.36" x2="67.55" y2="41.36"/><path class="cls-2" d="M71.56,43.36h-4a2,2,0,0,1,0-4h4a2,2,0,0,1,0,4Z"/><line class="cls-1" x1="15.16" y1="41.36" x2="11.15" y2="41.36"/><path class="cls-2" d="M15.16,43.36h-4a2,2,0,1,1,0-4h4a2,2,0,0,1,0,4Z"/><line class="cls-1" x1="41.35" y1="11.15" x2="41.35" y2="15.16"/><path class="cls-2" d="M41.35,17.16a2,2,0,0,1-2-2v-4a2,2,0,1,1,4,0v4A2,2,0,0,1,41.35,17.16Z"/><line class="cls-1" x1="41.35" y1="67.55" x2="41.35" y2="71.56"/><path class="cls-2" d="M41.35,73.56a2,2,0,0,1-2-2v-4a2,2,0,0,1,4,0v4A2,2,0,0,1,41.35,73.56Z"/><path class="cls-1" d="M37.58,41.36a3.78,3.78,0,1,1,3.77,3.77A3.77,3.77,0,0,1,37.58,41.36Z"/><path class="cls-2" d="M41.35,47.13a5.78,5.78,0,1,1,5.78-5.77A5.78,5.78,0,0,1,41.35,47.13Zm0-7.55a1.78,1.78,0,1,0,1.78,1.78A1.77,1.77,0,0,0,41.35,39.58Z"/><path class="cls-2" d="M58,43.36H45.85a2,2,0,0,1,0-4H58a2,2,0,0,1,0,4Z"/><path class="cls-2" d="M23.51,61.65a2,2,0,0,1-1.41-.59,2,2,0,0,1,0-2.82L37,43.36a2,2,0,0,1,2.83,2.82L24.92,61.06A2,2,0,0,1,23.51,61.65Z"/><path class="cls-4" d="M92.71,70.69a22,22,0,1,0-22,22A22,22,0,0,0,92.71,70.69Z"/><path class="cls-4" d="M70.69,94.71a24,24,0,1,1,24-24A24.06,24.06,0,0,1,70.69,94.71Zm0-44a20,20,0,1,0,20,20A20,20,0,0,0,70.69,50.66Z"/><path class="cls-1" d="M71.56,60.57a2,2,0,0,1-2-2V56.25a2,2,0,0,1,4,0v2.32A2,2,0,0,1,71.56,60.57Z"/><path class="cls-1" d="M71.56,87.12a2,2,0,0,1-2-2V82.8a2,2,0,0,1,4,0v2.32A2,2,0,0,1,71.56,87.12Z"/><path class="cls-1" d="M71.56,72.71A7.73,7.73,0,1,1,79.29,65a2,2,0,0,1-4,0,3.73,3.73,0,1,0-3.73,3.73,2,2,0,0,1,0,4Z"/><path class="cls-1" d="M71.56,84.12a7.73,7.73,0,0,1-7.73-7.72,2,2,0,0,1,4,0,3.73,3.73,0,1,0,3.73-3.73,2,2,0,0,1,0-4,7.73,7.73,0,1,1,0,15.45Z"/></g></g></svg>