<svg xmlns="http://www.w3.org/2000/svg" viewBox="0 0 82.94 94.71"><defs><style>.cls-1{fill:#f0f0f0;}.cls-2{fill:#fff;}.cls-3{fill:#6b6766;}.cls-4{fill:#1daeb0;}</style></defs><title>1자산 8</title><g id="레이어_2" data-name="레이어 2"><g id="레이어_1-2" data-name="레이어 1"><circle class="cls-1" cx="41.47" cy="47.36" r="40"/><polygon class="cls-2" points="41.47 54.08 2 73.39 41.47 92.71 80.94 73.39 41.47 54.08"/><path class="cls-3" d="M41.47,94.71a2,2,0,0,1-.88-.21L1.12,75.19a2,2,0,0,1,0-3.59L40.59,52.28a2,2,0,0,1,1.76,0L81.81,71.6a2,2,0,0,1,0,3.59L42.35,94.5A2,2,0,0,1,41.47,94.71ZM6.55,73.39,41.47,90.48,76.39,73.39,41.47,56.3Z"/><path class="cls-3" d="M22.65,84.6a2,2,0,0,1-.88-3.8L59.41,62.39A2,2,0,1,1,61.16,66L23.53,84.4A2,2,0,0,1,22.65,84.6Z"/><path class="cls-3" d="M60.28,84.6a1.94,1.94,0,0,1-.87-.2L21.77,66a2,2,0,1,1,1.76-3.59L61.16,80.8a2,2,0,0,1-.88,3.8Z"/><path class="cls-3" d="M71.65,48.13H11.29a2,2,0,0,1-2-2V34.45a2,2,0,0,1,4,0v9.68H69.65V34.45a2,2,0,0,1,4,0V46.13A2,2,0,0,1,71.65,48.13Z"/><path class="cls-3" d="M41.47,68.25a2,2,0,0,1-2-2V47.43a2,2,0,0,1,4,0V66.25A2,2,0,0,1,41.47,68.25Z"/><rect class="cls-4" x="18.59" y="22.45" width="5.84" height="16.55"/><path class="cls-4" d="M24.43,41H18.59a2,2,0,0,1-2-2V22.45a2,2,0,0,1,2-2h5.84a2,2,0,0,1,2,2V39A2,2,0,0,1,24.43,41Zm-3.84-4h1.84V24.45H20.59Z"/><rect class="cls-4" x="31.89" y="11.74" width="5.84" height="27.26"/><path class="cls-4" d="M37.74,41H31.89a2,2,0,0,1-2-2V11.74a2,2,0,0,1,2-2h5.85a2,2,0,0,1,2,2V39A2,2,0,0,1,37.74,41Zm-3.85-4h1.85V13.74H33.89Z"/><rect class="cls-4" x="45.2" y="15.95" width="5.84" height="23.04"/><path class="cls-4" d="M51,41H45.2a2,2,0,0,1-2-2V16a2,2,0,0,1,2-2H51a2,2,0,0,1,2,2V39A2,2,0,0,1,51,41ZM47.2,37H49V18H47.2Z"/><rect class="cls-4" x="58.5" y="2" width="5.84" height="37"/><path class="cls-4" d="M64.35,41H58.5a2,2,0,0,1-2-2V2a2,2,0,0,1,2-2h5.85a2,2,0,0,1,2,2V39A2,2,0,0,1,64.35,41ZM60.5,37h1.85V4H60.5Z"/></g></g></svg>