<svg xmlns="http://www.w3.org/2000/svg" viewBox="0 0 83.35 94.71"><defs><style>.cls-1{fill:#fff;}.cls-2{fill:#6b6766;}.cls-3{fill:#f0f0f0;}.cls-4{fill:#1daeb0;}</style></defs><title>1자산 5</title><g id="레이어_2" data-name="레이어 2"><g id="레이어_1-2" data-name="레이어 1"><polygon class="cls-1" points="6.89 27.27 41.68 7.18 76.46 27.27 76.46 67.44 41.68 87.52 6.89 67.44 6.89 27.27"/><path class="cls-2" d="M41.68,89.52a2.07,2.07,0,0,1-1-.26L5.89,69.17a2,2,0,0,1-1-1.73V27.27a2,2,0,0,1,1-1.73L40.68,5.45a2,2,0,0,1,2,0L77.46,25.54a2,2,0,0,1,1,1.73V67.44a2,2,0,0,1-1,1.73L42.68,89.26A2.1,2.1,0,0,1,41.68,89.52ZM8.89,66.29,41.68,85.21,74.46,66.29V28.42L41.68,9.49,8.89,28.42Z"/><circle class="cls-3" cx="41.68" cy="47.35" r="27"/><path class="cls-2" d="M41.68,49.41a2,2,0,0,1-1-.27L5.89,29.05a2,2,0,1,1,2-3.46L41.68,45.1,75.46,25.59a2,2,0,1,1,2,3.46L42.68,49.14A2,2,0,0,1,41.68,49.41Z"/><path class="cls-2" d="M41.68,88.4a2,2,0,0,1-2-2V47.35a2,2,0,0,1,4,0V86.4A2,2,0,0,1,41.68,88.4Z"/><path class="cls-4" d="M11.06,27.12a4.53,4.53,0,1,0-4.53,4.53A4.53,4.53,0,0,0,11.06,27.12Z"/><path class="cls-4" d="M6.53,33.65a6.53,6.53,0,1,1,6.53-6.53A6.54,6.54,0,0,1,6.53,33.65Zm0-9.06a2.53,2.53,0,1,0,2.53,2.53A2.53,2.53,0,0,0,6.53,24.59Z"/><path class="cls-4" d="M81.35,27.12a4.53,4.53,0,1,0-4.53,4.53A4.53,4.53,0,0,0,81.35,27.12Z"/><path class="cls-4" d="M76.82,33.65a6.53,6.53,0,1,1,6.53-6.53A6.54,6.54,0,0,1,76.82,33.65Zm0-9.06a2.53,2.53,0,1,0,2.53,2.53A2.53,2.53,0,0,0,76.82,24.59Z"/><path class="cls-4" d="M46.2,48.06a4.53,4.53,0,1,0-4.52,4.53A4.52,4.52,0,0,0,46.2,48.06Z"/><path class="cls-4" d="M41.68,54.59a6.53,6.53,0,1,1,6.52-6.53A6.54,6.54,0,0,1,41.68,54.59Zm0-9.05a2.53,2.53,0,1,0,2.52,2.52A2.52,2.52,0,0,0,41.68,45.54Z"/><path class="cls-4" d="M11.06,67.23a4.53,4.53,0,1,0-4.53,4.53A4.52,4.52,0,0,0,11.06,67.23Z"/><path class="cls-4" d="M6.53,73.76a6.53,6.53,0,1,1,6.53-6.53A6.54,6.54,0,0,1,6.53,73.76Zm0-9.05a2.53,2.53,0,1,0,2.53,2.52A2.52,2.52,0,0,0,6.53,64.71Z"/><path class="cls-4" d="M81.35,67.23a4.53,4.53,0,1,0-4.53,4.53A4.52,4.52,0,0,0,81.35,67.23Z"/><path class="cls-4" d="M76.82,73.76a6.53,6.53,0,1,1,6.53-6.53A6.54,6.54,0,0,1,76.82,73.76Zm0-9.05a2.53,2.53,0,1,0,2.53,2.52A2.53,2.53,0,0,0,76.82,64.71Z"/><path class="cls-4" d="M46.2,88.18a4.53,4.53,0,1,0-4.52,4.53A4.52,4.52,0,0,0,46.2,88.18Z"/><path class="cls-4" d="M41.68,94.71a6.53,6.53,0,1,1,6.52-6.53A6.54,6.54,0,0,1,41.68,94.71Zm0-9.06a2.53,2.53,0,1,0,2.52,2.53A2.53,2.53,0,0,0,41.68,85.65Z"/><path class="cls-4" d="M46.2,6.53a4.53,4.53,0,1,0-4.52,4.53A4.52,4.52,0,0,0,46.2,6.53Z"/><path class="cls-4" d="M41.68,13.06A6.53,6.53,0,1,1,48.2,6.53,6.54,6.54,0,0,1,41.68,13.06Zm0-9.06A2.53,2.53,0,1,0,44.2,6.53,2.53,2.53,0,0,0,41.68,4Z"/></g></g></svg>