<svg xmlns="http://www.w3.org/2000/svg" viewBox="0 0 94.71 94.71"><defs><style>.cls-1{fill:#f0f0f0;}.cls-2{fill:#1daeb0;}.cls-3{fill:#fff;}.cls-4{fill:#6b6766;}</style></defs><title>1자산 6</title><g id="레이어_2" data-name="레이어 2"><g id="레이어_1-2" data-name="레이어 1"><circle class="cls-1" cx="47.35" cy="47.35" r="42.52" transform="translate(-2.84 3.02) rotate(-3.55)"/><rect class="cls-2" x="2" y="2" width="35.38" height="35.38" rx="3.81" ry="3.81"/><path class="cls-2" d="M33.57,39.38H5.81A5.81,5.81,0,0,1,0,33.57V5.81A5.82,5.82,0,0,1,5.81,0H33.57a5.81,5.81,0,0,1,5.81,5.81V33.57A5.81,5.81,0,0,1,33.57,39.38ZM5.81,4A1.81,1.81,0,0,0,4,5.81V33.57a1.81,1.81,0,0,0,1.81,1.81H33.57a1.81,1.81,0,0,0,1.81-1.81V5.81A1.81,1.81,0,0,0,33.57,4Z"/><path class="cls-3" d="M26.12,19.69a6.43,6.43,0,1,0-6.43,6.43A6.43,6.43,0,0,0,26.12,19.69Z"/><path class="cls-4" d="M19.69,28.12a8.43,8.43,0,1,1,8.43-8.43A8.44,8.44,0,0,1,19.69,28.12Zm0-12.86a4.43,4.43,0,1,0,4.43,4.43A4.44,4.44,0,0,0,19.69,15.26Z"/><rect class="cls-3" x="57.33" y="57.33" width="35.38" height="35.38" rx="3.81" ry="3.81"/><path class="cls-4" d="M88.9,94.71H61.13a5.81,5.81,0,0,1-5.8-5.81V61.13a5.8,5.8,0,0,1,5.8-5.8H88.9a5.81,5.81,0,0,1,5.81,5.8V88.9A5.82,5.82,0,0,1,88.9,94.71ZM61.13,59.33a1.81,1.81,0,0,0-1.8,1.8V88.9a1.81,1.81,0,0,0,1.8,1.81H88.9a1.81,1.81,0,0,0,1.81-1.81V61.13a1.81,1.81,0,0,0-1.81-1.8Z"/><path class="cls-3" d="M81.45,75A6.44,6.44,0,1,0,75,81.45,6.43,6.43,0,0,0,81.45,75Z"/><path class="cls-4" d="M75,83.45A8.44,8.44,0,1,1,83.45,75,8.45,8.45,0,0,1,75,83.45Zm0-12.87A4.44,4.44,0,1,0,79.45,75,4.44,4.44,0,0,0,75,70.58Z"/><rect class="cls-3" x="2" y="57.33" width="35.38" height="35.38" rx="3.81" ry="3.81"/><path class="cls-4" d="M33.57,94.71H5.81A5.82,5.82,0,0,1,0,88.9V61.13a5.81,5.81,0,0,1,5.81-5.8H33.57a5.81,5.81,0,0,1,5.81,5.8V88.9A5.81,5.81,0,0,1,33.57,94.71ZM5.81,59.33A1.81,1.81,0,0,0,4,61.13V88.9a1.81,1.81,0,0,0,1.81,1.81H33.57a1.81,1.81,0,0,0,1.81-1.81V61.13a1.81,1.81,0,0,0-1.81-1.8Z"/><path class="cls-3" d="M19.69,68.58A6.44,6.44,0,1,0,26.12,75,6.43,6.43,0,0,0,19.69,68.58Z"/><path class="cls-4" d="M19.69,83.45A8.44,8.44,0,1,1,28.12,75,8.44,8.44,0,0,1,19.69,83.45Zm0-12.87A4.44,4.44,0,1,0,24.12,75,4.44,4.44,0,0,0,19.69,70.58Z"/><rect class="cls-3" x="57.33" y="2" width="35.38" height="35.38" rx="3.81" ry="3.81"/><path class="cls-4" d="M88.9,39.38H61.13a5.81,5.81,0,0,1-5.8-5.81V5.81A5.81,5.81,0,0,1,61.13,0H88.9a5.82,5.82,0,0,1,5.81,5.81V33.57A5.81,5.81,0,0,1,88.9,39.38ZM61.13,4a1.81,1.81,0,0,0-1.8,1.81V33.57a1.81,1.81,0,0,0,1.8,1.81H88.9a1.81,1.81,0,0,0,1.81-1.81V5.81A1.81,1.81,0,0,0,88.9,4Z"/><path class="cls-3" d="M75,13.26a6.43,6.43,0,1,0,6.43,6.43A6.44,6.44,0,0,0,75,13.26Z"/><path class="cls-4" d="M75,28.12a8.43,8.43,0,1,1,8.43-8.43A8.45,8.45,0,0,1,75,28.12Zm0-12.86a4.43,4.43,0,1,0,4.43,4.43A4.44,4.44,0,0,0,75,15.26Z"/><line class="cls-3" x1="19.6" y1="26.85" x2="19.6" y2="67.85"/><path class="cls-4" d="M19.6,69.85a2,2,0,0,1-2-2v-41a2,2,0,0,1,4,0v41A2,2,0,0,1,19.6,69.85Z"/><line class="cls-3" x1="75.1" y1="26.85" x2="75.1" y2="67.85"/><path class="cls-4" d="M75.1,69.85a2,2,0,0,1-2-2v-41a2,2,0,1,1,4,0v41A2,2,0,0,1,75.1,69.85Z"/><line class="cls-3" x1="26.85" y1="75.1" x2="67.85" y2="75.1"/><path class="cls-4" d="M67.85,77.1h-41a2,2,0,1,1,0-4h41a2,2,0,0,1,0,4Z"/><line class="cls-3" x1="26.85" y1="19.6" x2="67.85" y2="19.6"/><path class="cls-4" d="M67.85,21.6h-41a2,2,0,0,1,0-4h41a2,2,0,0,1,0,4Z"/></g></g></svg>